<?xml version="1.0" encoding="utf-8"?>
<!-- Generator: Adobe Illustrator 19.0.0, SVG Export Plug-In . SVG Version: 6.00 Build 0)  -->
<svg version="1.1" id="Layer_1" xmlns="http://www.w3.org/2000/svg" xmlns:xlink="http://www.w3.org/1999/xlink" x="0px" y="0px"
	 viewBox="0 0 96 96" style="enable-background:new 0 0 96 96;" xml:space="preserve">
<style type="text/css">
	.st0{fill:#333333;}
</style>
<g id="XMLID_1_">
	<path id="XMLID_3_" class="st0" d="M75.9,75.9c0,2.6-2.1,4.6-4.6,4.6H24.8c-2.6,0-4.6-2.1-4.6-4.6v-4.6c0-12.2,18.6-18.6,18.6-18.6
		s1.1-1.9,0-4.6c-3.9-2.9-4.4-7.4-4.6-18.6c0.8-11.2,8.7-13.9,13.9-13.9s13.1,2.7,13.9,13.9c-0.3,11.2-0.7,15.7-4.6,18.6
		c-1.1,2.7,0,4.6,0,4.6S75.9,59,75.9,71.2V75.9z"/>
</g>
</svg>
